<svg id="visual" viewBox="0 0 900 100" width="900" height="100" xmlns="http://www.w3.org/2000/svg" xmlns:xlink="http://www.w3.org/1999/xlink" version="1.1"><rect x="0" y="0" width="900" height="100" fill="#749cdd"></rect><path d="M0 55L9.3 54.8C18.7 54.7 37.3 54.3 56.2 52.3C75 50.3 94 46.7 112.8 40.3C131.7 34 150.3 25 169 27.3C187.7 29.7 206.3 43.3 225 47.5C243.7 51.7 262.3 46.3 281.2 38.7C300 31 319 21 337.8 18.5C356.7 16 375.3 21 394 30.2C412.7 39.3 431.3 52.7 450 59C468.7 65.3 487.3 64.7 506.2 59.7C525 54.7 544 45.3 562.8 38.5C581.7 31.7 600.3 27.3 619 25.2C637.7 23 656.3 23 675 25.7C693.7 28.3 712.3 33.7 731.2 39.3C750 45 769 51 787.8 53.3C806.7 55.7 825.3 54.3 844 54.3C862.7 54.3 881.3 55.7 890.7 56.3L900 57L900 0L890.7 0C881.3 0 862.7 0 844 0C825.3 0 806.7 0 787.8 0C769 0 750 0 731.2 0C712.3 0 693.7 0 675 0C656.3 0 637.7 0 619 0C600.3 0 581.7 0 562.8 0C544 0 525 0 506.2 0C487.3 0 468.7 0 450 0C431.3 0 412.7 0 394 0C375.3 0 356.7 0 337.8 0C319 0 300 0 281.2 0C262.3 0 243.7 0 225 0C206.3 0 187.7 0 169 0C150.3 0 131.7 0 112.8 0C94 0 75 0 56.2 0C37.3 0 18.7 0 9.3 0L0 0Z" fill="#0c5ffa" stroke-linecap="round" stroke-linejoin="miter"></path></svg>