<svg id="visual" viewBox="0 0 900 100" width="900" height="100" xmlns="http://www.w3.org/2000/svg" xmlns:xlink="http://www.w3.org/1999/xlink" version="1.1"><rect x="0" y="0" width="900" height="100" fill="#749cdd"></rect><path d="M0 43L9.3 43.2C18.7 43.3 37.3 43.7 56.2 45.7C75 47.7 94 51.3 112.8 57.7C131.7 64 150.3 73 169 70.7C187.7 68.3 206.3 54.7 225 50.5C243.7 46.3 262.3 51.7 281.2 59.3C300 67 319 77 337.8 79.5C356.7 82 375.3 77 394 67.8C412.7 58.7 431.3 45.3 450 39C468.7 32.7 487.3 33.3 506.2 38.3C525 43.3 544 52.7 562.8 59.5C581.7 66.3 600.3 70.7 619 72.8C637.7 75 656.3 75 675 72.3C693.7 69.7 712.3 64.3 731.2 58.7C750 53 769 47 787.8 44.7C806.7 42.3 825.3 43.7 844 43.7C862.7 43.7 881.3 42.3 890.7 41.7L900 41L900 101L890.7 101C881.3 101 862.7 101 844 101C825.3 101 806.7 101 787.8 101C769 101 750 101 731.2 101C712.3 101 693.7 101 675 101C656.3 101 637.7 101 619 101C600.3 101 581.7 101 562.8 101C544 101 525 101 506.2 101C487.3 101 468.7 101 450 101C431.3 101 412.7 101 394 101C375.3 101 356.7 101 337.8 101C319 101 300 101 281.2 101C262.3 101 243.7 101 225 101C206.3 101 187.7 101 169 101C150.3 101 131.7 101 112.8 101C94 101 75 101 56.2 101C37.3 101 18.7 101 9.3 101L0 101Z" fill="#0c5ffa" stroke-linecap="round" stroke-linejoin="miter"></path></svg>