<svg id="visual" viewBox="0 0 900 100" width="900" height="100" xmlns="http://www.w3.org/2000/svg" xmlns:xlink="http://www.w3.org/1999/xlink" version="1.1"><rect x="0" y="0" width="900" height="100" fill="#121212"></rect><path d="M0 42L9.3 43.5C18.7 45 37.3 48 56.2 52.8C75 57.7 94 64.3 112.8 61.5C131.7 58.7 150.3 46.3 169 45C187.7 43.7 206.3 53.3 225 56C243.7 58.7 262.3 54.3 281.2 52.7C300 51 319 52 337.8 55.2C356.7 58.3 375.3 63.7 394 63.7C412.7 63.7 431.3 58.3 450 53.7C468.7 49 487.3 45 506.2 48.2C525 51.3 544 61.7 562.8 62.8C581.7 64 600.3 56 619 54.5C637.7 53 656.3 58 675 58C693.7 58 712.3 53 731.2 53.8C750 54.7 769 61.3 787.8 64.8C806.7 68.3 825.3 68.7 844 63C862.7 57.3 881.3 45.7 890.7 39.8L900 34L900 101L890.7 101C881.3 101 862.7 101 844 101C825.3 101 806.7 101 787.8 101C769 101 750 101 731.2 101C712.3 101 693.7 101 675 101C656.3 101 637.7 101 619 101C600.3 101 581.7 101 562.8 101C544 101 525 101 506.2 101C487.3 101 468.7 101 450 101C431.3 101 412.7 101 394 101C375.3 101 356.7 101 337.8 101C319 101 300 101 281.2 101C262.3 101 243.7 101 225 101C206.3 101 187.7 101 169 101C150.3 101 131.7 101 112.8 101C94 101 75 101 56.2 101C37.3 101 18.7 101 9.3 101L0 101Z" fill="#0c5ffa" stroke-linecap="round" stroke-linejoin="miter"></path></svg>